<?xml version="1.0" encoding="utf-8"?>
<!-- Generator: Adobe Illustrator 15.1.0, SVG Export Plug-In  -->
<!DOCTYPE svg PUBLIC "-//W3C//DTD SVG 1.1//EN" "http://www.w3.org/Graphics/SVG/1.1/DTD/svg11.dtd" [
	<!ENTITY ns_flows "http://ns.adobe.com/Flows/1.0/">
]>
<svg version="1.1"
	 xmlns="http://www.w3.org/2000/svg" xmlns:xlink="http://www.w3.org/1999/xlink" xmlns:a="http://ns.adobe.com/AdobeSVGViewerExtensions/3.0/"
	 x="0px" y="0px" width="274px" height="63px" viewBox="-1.5 -14.3 274 63"
	 overflow="visible" enable-background="new -1.5 -14.3 274 63" xml:space="preserve">
<defs>
</defs>
<path fill="#B75353" d="M15.2,0c-2.6,0.1-10,4.9-8.4,14.1l2,11.9h12.8l2-11.9C25.2,4.9,17.8,0.1,15.2,0z M15.3,20.5
	c-1.5,0-2.8-1.2-2.8-2.8c0-1.2,0.7-2.1,1.7-2.6c0.3-0.1,0.7-0.2,1.1-0.2c1.5,0,2.8,1.2,2.8,2.8C18.1,19.3,16.8,20.5,15.3,20.5z
	 M15.3,11.1c-1.5,0-2.8-1.3-2.8-2.8c0-1.2,0.7-2.1,1.7-2.6c0.3-0.1,0.7-0.2,1.1-0.2c1.5,0,2.8,1.2,2.8,2.8
	C18.1,9.9,16.8,11.1,15.3,11.1z M11.4,27.1l-0.7,3.3h8.9L19,27.1H11.4z M30.3,22.9c-0.3-1.7-3.4-5-5.9-7l0,0l-1.7,10.4l4.9,4.1
	C28.1,29.7,31,26.4,30.3,22.9z M6,15.9c-2.4,2-5.5,5.3-5.9,7c-0.7,3.5,2.2,6.8,2.7,7.5l4.9-4.1L6,15.9L6,15.9z"/>
<g>
	<path fill="#555555" d="M47.7,23.7v-5.3H46v-0.6h7.8v0.6h-1.1v7.7h-0.4c-0.3-0.5-0.6-0.7-1.4-0.7c-1.1,0-3.1,1-5.5,1
		c-5.8,0-9.3-3-9.3-9.5c0-6.6,3.8-10.1,9.4-10.1c2.8,0,4.3,0.8,5.2,0.8c0.4,0,0.5-0.2,0.7-0.5h0.3L52,13h-0.5
		c-1.5-3-3.3-5.7-5.7-5.7c-2.7,0-4.2,2.5-4.2,8.1v2.1c0,5.5,1.4,8.2,3.9,8.2C47.5,25.9,47.7,25.1,47.7,23.7z"/>
	<path fill="#555555" d="M62.7,16.5v9.1h1.8v0.5h-8.8v-0.5h1.8v-18h-1.8V7.1h8.2c5.7,0,8.4,0.6,8.4,4.6c0,3.3-1.7,4.3-4.6,4.5v0.1
		c2.9,0.4,3.9,1.5,3.9,4.7v1.4c0,1.8,0.1,2.4,0.8,2.4c0.5,0,0.9-0.2,1.3-2.3l0.5,0.1c-0.4,3.1-1.2,3.9-3.7,3.9c-3.4,0-4.4-1.1-4.4-5
		v-2c0-1.9-0.4-2.9-1.8-2.9H62.7z M62.7,16h0.9c2,0,3-1.1,3-4.1v-0.8c0-3-1.1-3.5-3-3.5h-0.9V16z"/>
	<path fill="#555555" d="M84.6,19.8h-5.4l-2.1,5.9h2v0.5H75v-0.5h1.3l6.9-18.7h2.2l6.9,18.7h1.3v0.5h-8.9v-0.5h1.9L84.6,19.8z
		 M79.5,19.2h4.9L82.1,12L79.5,19.2z M81.7,1.8c1.2,0,2,0.6,2,2c0,1.2-0.7,2-2,2c-1.5,0-2-1.1-2-2C79.7,2.8,80.4,1.8,81.7,1.8z
		 M87,1.8c1.2,0,2,0.6,2,2c0,1.2-0.7,2-2,2c-1.5,0-2-1.1-2-2C85,2.8,85.7,1.8,87,1.8z"/>
	<path fill="#555555" d="M110.3,26.1h-3.8L97.1,8.6v17.1h1.5v0.5h-3.7v-0.5h1.5v-18h-1.5V7.1h7.5l7.1,13.7V7.6H108V7.1h3.7v0.5h-1.5
		V26.1z"/>
	<path fill="#555555" d="M125.2,23c0-2.3-1.7-3-5-3.9c-3.3-0.9-5.8-2.2-5.8-6.3c0-3,2.3-5.9,6.4-5.9c2.5,0,3.9,0.8,4.8,0.8
		c0.5,0,0.6-0.2,0.8-0.5h0.3l0.2,5.5h-0.4c-1.4-2.5-3.2-5.2-6-5.2c-2,0-3.3,1.1-3.3,2.7c0,2,1.8,2.7,4.6,3.4c3,0.8,6.4,1.8,6.4,6.4
		c0,3.9-2.7,6.5-6.7,6.5c-2.6,0-4.9-0.8-5.7-0.8c-0.4,0-0.6,0.3-0.8,0.8h-0.4l-0.3-6.5h0.5c1.4,2.7,4,5.9,7,5.9
		C123.4,25.8,125.2,25,125.2,23z"/>
	<path fill="#555555" d="M138.4,7.1c4.8,0,7.6,1.1,7.6,4.5c0,2.6-1.6,4-4.5,4.5v0.1c3.4,0.4,5.4,1.9,5.4,4.7c0,4.2-3.5,5.3-8.6,5.3
		h-8v-0.5h1.8v-18h-1.8V7.1H138.4z M137.4,16h0.7c2,0,2.5-1.3,2.5-3.5v-1.3c0-2.6-0.5-3.6-2.4-3.6h-0.9V16z M137.4,25.6h1.3
		c2.1,0,2.7-1.6,2.7-4.1v-1.4c0-2.2-0.7-3.6-3.3-3.6h-0.6V25.6z"/>
	<path fill="#555555" d="M155.6,16.5v9.1h1.8v0.5h-8.8v-0.5h1.8v-18h-1.8V7.1h8.2c5.7,0,8.4,0.6,8.4,4.6c0,3.3-1.7,4.3-4.6,4.5v0.1
		c2.9,0.4,3.9,1.5,3.9,4.7v1.4c0,1.8,0.1,2.4,0.8,2.4c0.5,0,0.9-0.2,1.3-2.3l0.5,0.1c-0.4,3.1-1.2,3.9-3.7,3.9c-3.4,0-4.4-1.1-4.4-5
		v-2c0-1.9-0.4-2.9-1.8-2.9H155.6z M155.6,16h0.9c2,0,3-1.1,3-4.1v-0.8c0-3-1.1-3.5-3-3.5h-0.9V16z"/>
	<path fill="#555555" d="M180.9,7.5h-2.7V7.1h5.4v0.4h-1.8l-4.1,9.1v9h1.7v0.5h-8.6v-0.5h1.7v-8.5l-4.6-9.6h-1.3V7.1h8.7v0.4h-1.8
		l3.7,8.5L180.9,7.5z"/>
	<path fill="#555555" d="M201.7,13.9h-0.5c-1.5-4.4-2.3-6.3-4.8-6.3h-0.3v17.9h2.3v0.6h-9.9v-0.6h2.3V7.7h-0.4c-2.5,0-3.4,2-4.8,6.3
		h-0.5l0.3-6.8h16L201.7,13.9z"/>
	<path fill="#555555" d="M219.2,26.1h-3.8l-9.3-17.6v17.1h1.5v0.5h-3.7v-0.5h1.5v-18h-1.5V7.1h7.5l7.1,13.7V7.6H217V7.1h3.7v0.5
		h-1.5V26.1z"/>
	<path fill="#555555" d="M230.9,7.1v0.5h-1.5v18h1.5v0.5h-8.3v-0.5h1.5v-18h-1.5V7.1H230.9z"/>
	<path fill="#555555" d="M248.1,26.1h-3.8L235,8.6v17.1h1.5v0.5h-3.7v-0.5h1.5v-18h-1.5V7.1h7.5l7.1,13.7V7.6h-1.5V7.1h3.7v0.5h-1.5
		V26.1z"/>
	<path fill="#555555" d="M263.2,23.7v-5.3h-1.7v-0.6h7.8v0.6h-1.1v7.7h-0.4c-0.3-0.5-0.6-0.7-1.4-0.7c-1.1,0-3.1,1-5.5,1
		c-5.8,0-9.3-3-9.3-9.5c0-6.6,3.8-10.1,9.4-10.1c2.8,0,4.3,0.8,5.2,0.8c0.4,0,0.5-0.2,0.7-0.5h0.3l0.2,5.9H267
		c-1.5-3-3.3-5.7-5.7-5.7c-2.7,0-4.2,2.5-4.2,8.1v2.1c0,5.5,1.4,8.2,3.9,8.2C263,25.9,263.2,25.1,263.2,23.7z"/>
</g>
</svg>
