<?xml version="1.0" encoding="utf-8"?>
<!-- Generator: Adobe Illustrator 15.1.0, SVG Export Plug-In  -->
<!DOCTYPE svg PUBLIC "-//W3C//DTD SVG 1.1//EN" "http://www.w3.org/Graphics/SVG/1.1/DTD/svg11.dtd" [
	<!ENTITY ns_flows "http://ns.adobe.com/Flows/1.0/">
]>
<svg version="1.1"
	 xmlns="http://www.w3.org/2000/svg" xmlns:xlink="http://www.w3.org/1999/xlink" xmlns:a="http://ns.adobe.com/AdobeSVGViewerExtensions/3.0/"
	 x="0px" y="0px" width="141px" height="64px" viewBox="0 0 141 64" overflow="visible" enable-background="new 0 0 141 64"
	 xml:space="preserve">
<defs>
</defs>
<rect width="141" height="64"/>
<g>
	<path fill="#FFFFFF" d="M5.836,50.624c0,1.148,0.014,1.989,0.07,2.493c0.042,0.351,0.126,0.574,0.49,0.631
		c0.168,0.027,0.434,0.042,0.602,0.042c0.154,0,0.21,0.07,0.21,0.126c0,0.084-0.084,0.126-0.267,0.126
		C6.159,54.042,5.29,54,4.968,54c-0.322,0-1.107,0.042-1.569,0.042c-0.168,0-0.252-0.028-0.252-0.126
		c0-0.056,0.042-0.126,0.182-0.126c0.182,0,0.322-0.015,0.434-0.042c0.252-0.057,0.322-0.28,0.364-0.631
		c0.056-0.504,0.056-1.387,0.056-2.535v-2.101c0-1.807,0-2.143-0.014-2.521c-0.028-0.406-0.14-0.546-0.532-0.644
		c-0.098-0.028-0.308-0.042-0.49-0.042c-0.112,0-0.21-0.042-0.21-0.126c0-0.084,0.098-0.112,0.294-0.112
		c0.63,0,1.415,0.028,1.765,0.028c0.476,0,3.208,0.014,3.502,0c0.224-0.014,0.378-0.028,0.504-0.056
		c0.07-0.014,0.126-0.07,0.196-0.07c0.042,0,0.084,0.056,0.084,0.112c0,0.084-0.056,0.224-0.098,0.532
		c-0.014,0.126-0.042,0.826-0.056,0.966c-0.014,0.098-0.042,0.238-0.126,0.238c-0.084,0-0.154-0.056-0.154-0.196
		c0-0.098,0.014-0.28-0.07-0.448c-0.084-0.168-0.322-0.35-0.784-0.364l-2.045-0.042c-0.07,0-0.112,0.028-0.112,0.168v2.885
		c0,0.07,0.014,0.112,0.084,0.112l1.723-0.014c0.21,0,0.378,0,0.56-0.014c0.224-0.014,0.406-0.056,0.519-0.21
		c0.07-0.07,0.098-0.126,0.168-0.126c0.042,0,0.07,0.042,0.07,0.112c0,0.07-0.056,0.393-0.098,0.771
		c-0.028,0.238-0.042,0.785-0.042,0.869c0,0.098-0.014,0.266-0.14,0.266c-0.07,0-0.112-0.084-0.112-0.168s-0.028-0.224-0.084-0.364
		c-0.056-0.168-0.21-0.406-0.588-0.434c-0.308-0.028-1.765-0.042-1.975-0.042c-0.056,0-0.084,0.014-0.084,0.098V50.624z"/>
	<path fill="#FFFFFF" d="M11.126,49.532c0-2.031,1.429-4.665,5.169-4.665c3.109,0,5.042,1.723,5.042,4.454s-1.989,4.875-5.168,4.875
		C12.583,54.196,11.126,51.646,11.126,49.532z M19.503,49.756c0-2.634-1.583-4.258-3.572-4.258c-1.373,0-2.984,0.728-2.984,3.67
		c0,2.452,1.401,4.384,3.726,4.384C17.542,53.552,19.503,53.146,19.503,49.756z M14.124,43.284c0-0.266,0.196-0.645,0.645-0.645
		c0.364,0,0.658,0.224,0.658,0.603c0,0.392-0.266,0.7-0.672,0.7C14.306,43.942,14.124,43.578,14.124,43.284z M17.08,43.284
		c0-0.28,0.196-0.658,0.645-0.658c0.364,0,0.658,0.224,0.658,0.616s-0.266,0.7-0.672,0.7C17.262,43.942,17.08,43.578,17.08,43.284z"
		/>
	<path fill="#FFFFFF" d="M23.979,48.481c0-1.807,0-2.143-0.014-2.521c-0.028-0.406-0.14-0.532-0.532-0.644
		c-0.098-0.028-0.308-0.042-0.49-0.042c-0.126,0-0.21-0.042-0.21-0.126c0-0.084,0.098-0.112,0.28-0.112
		c0.644,0,1.429,0.028,1.681,0.028c0.42,0,1.541-0.028,1.919-0.028c0.785,0,1.681,0.07,2.339,0.504
		c0.35,0.238,0.869,0.84,0.869,1.639c0,0.882-0.504,1.667-1.709,2.633c1.092,1.345,1.961,2.424,2.703,3.166
		c0.687,0.687,1.121,0.742,1.317,0.784c0.126,0.028,0.196,0.028,0.294,0.028c0.098,0,0.154,0.07,0.154,0.126
		c0,0.098-0.084,0.126-0.238,0.126h-1.176c-0.687,0-1.022-0.07-1.345-0.238c-0.532-0.266-0.995-0.826-1.681-1.751
		c-0.49-0.645-1.008-1.442-1.163-1.625c-0.07-0.069-0.14-0.084-0.224-0.084l-1.106-0.027c-0.056,0-0.098,0.027-0.098,0.098v0.168
		c0,1.106,0.014,2.031,0.07,2.535c0.042,0.351,0.098,0.574,0.477,0.631c0.182,0.027,0.448,0.042,0.602,0.042
		c0.098,0,0.154,0.07,0.154,0.126c0,0.084-0.098,0.126-0.252,0.126c-0.715,0-1.737-0.042-1.919-0.042
		c-0.238,0-1.022,0.042-1.513,0.042c-0.154,0-0.238-0.042-0.238-0.126c0-0.056,0.042-0.126,0.196-0.126
		c0.182,0,0.322-0.015,0.434-0.042c0.252-0.057,0.322-0.28,0.364-0.631c0.056-0.504,0.056-1.442,0.056-2.535V48.481z M25.548,49.405
		c0,0.126,0.028,0.168,0.112,0.21c0.266,0.084,0.63,0.112,0.938,0.112c0.49,0,0.658-0.042,0.868-0.196
		c0.378-0.266,0.798-0.785,0.798-1.765c0-1.681-1.148-2.115-1.877-2.115c-0.308,0-0.602,0.014-0.728,0.042
		c-0.084,0.028-0.112,0.07-0.112,0.168V49.405z"/>
	<path fill="#FFFFFF" d="M33.051,53.888c-0.196-0.084-0.238-0.14-0.238-0.406c0-0.645,0.056-1.387,0.07-1.583
		c0-0.182,0.056-0.308,0.154-0.308c0.112,0,0.126,0.112,0.126,0.196c0,0.153,0.042,0.406,0.112,0.616
		c0.266,0.882,1.19,1.177,1.961,1.177c1.064,0,1.709-0.673,1.709-1.513c0-0.519-0.126-1.037-1.219-1.682l-0.714-0.42
		c-1.457-0.854-1.933-1.653-1.933-2.704c0-1.457,1.401-2.395,3.11-2.395c0.798,0,1.429,0.112,1.751,0.196
		c0.112,0.028,0.168,0.07,0.168,0.154c0,0.154-0.042,0.49-0.042,1.429c0,0.252-0.056,0.378-0.154,0.378
		c-0.084,0-0.126-0.07-0.126-0.21c0-0.112-0.056-0.476-0.322-0.784c-0.182-0.224-0.575-0.561-1.373-0.561
		c-0.882,0-1.681,0.462-1.681,1.275c0,0.532,0.196,0.953,1.303,1.569l0.504,0.28c1.625,0.896,2.129,1.807,2.129,2.885
		c0,0.883-0.336,1.597-1.233,2.228c-0.588,0.42-1.4,0.49-2.059,0.49C34.339,54.196,33.583,54.126,33.051,53.888z"/>
	<path fill="#FFFFFF" d="M43.272,45.764l-1.835,0.042c-0.714,0.014-1.008,0.098-1.19,0.364c-0.126,0.168-0.182,0.322-0.21,0.406
		c-0.028,0.098-0.056,0.154-0.14,0.154s-0.112-0.07-0.112-0.196c0-0.196,0.238-1.345,0.266-1.443c0.028-0.154,0.07-0.224,0.14-0.224
		c0.098,0,0.224,0.098,0.532,0.14c0.364,0.042,0.827,0.056,1.233,0.056h5c0.392,0,0.659-0.028,0.84-0.056
		c0.196-0.028,0.294-0.056,0.336-0.056c0.084,0,0.098,0.07,0.098,0.252c0,0.252-0.028,1.135-0.028,1.443
		c-0.014,0.126-0.042,0.196-0.112,0.196c-0.098,0-0.126-0.056-0.14-0.238l-0.014-0.126c-0.028-0.308-0.35-0.672-1.457-0.687
		l-1.555-0.028v4.818c0,1.093,0.014,2.031,0.07,2.55c0.042,0.336,0.112,0.56,0.476,0.616c0.168,0.027,0.448,0.042,0.63,0.042
		c0.14,0,0.196,0.07,0.196,0.126c0,0.084-0.098,0.126-0.238,0.126c-0.812,0-1.639-0.042-1.989-0.042
		c-0.28,0-1.121,0.042-1.611,0.042c-0.154,0-0.238-0.042-0.238-0.126c0-0.056,0.042-0.126,0.196-0.126
		c0.182,0,0.336-0.015,0.435-0.042c0.252-0.057,0.322-0.28,0.364-0.631c0.056-0.504,0.056-1.442,0.056-2.535V45.764z"/>
	<path fill="#FFFFFF" d="M49.319,49.532c0-2.031,1.429-4.665,5.167-4.665c3.111,0,5.043,1.723,5.043,4.454s-1.988,4.875-5.168,4.875
		C50.775,54.196,49.319,51.646,49.319,49.532z M57.695,49.756c0-2.634-1.584-4.258-3.572-4.258c-1.373,0-2.984,0.728-2.984,3.67
		c0,2.452,1.402,4.384,3.727,4.384C55.734,53.552,57.695,53.146,57.695,49.756z"/>
	<path fill="#FFFFFF" d="M62.17,48.481c0-1.807,0-2.143-0.014-2.521c-0.027-0.406-0.139-0.532-0.531-0.644
		c-0.098-0.028-0.309-0.042-0.49-0.042c-0.127,0-0.211-0.042-0.211-0.126c0-0.084,0.098-0.112,0.281-0.112
		c0.645,0,1.428,0.028,1.68,0.028c0.42,0,1.541-0.028,1.92-0.028c0.783,0,1.68,0.07,2.34,0.504c0.35,0.238,0.867,0.84,0.867,1.639
		c0,0.882-0.504,1.667-1.709,2.633c1.094,1.345,1.961,2.424,2.703,3.166c0.688,0.687,1.121,0.742,1.318,0.784
		c0.125,0.028,0.195,0.028,0.293,0.028s0.154,0.07,0.154,0.126c0,0.098-0.084,0.126-0.238,0.126h-1.176
		c-0.688,0-1.023-0.07-1.346-0.238c-0.531-0.266-0.994-0.826-1.68-1.751c-0.49-0.645-1.01-1.442-1.164-1.625
		c-0.07-0.069-0.139-0.084-0.223-0.084l-1.107-0.027c-0.057,0-0.098,0.027-0.098,0.098v0.168c0,1.106,0.014,2.031,0.07,2.535
		c0.041,0.351,0.098,0.574,0.475,0.631c0.184,0.027,0.449,0.042,0.604,0.042c0.098,0,0.154,0.07,0.154,0.126
		c0,0.084-0.098,0.126-0.252,0.126c-0.715,0-1.738-0.042-1.92-0.042c-0.238,0-1.021,0.042-1.512,0.042
		c-0.154,0-0.238-0.042-0.238-0.126c0-0.056,0.041-0.126,0.195-0.126c0.182,0,0.322-0.015,0.434-0.042
		c0.252-0.057,0.322-0.28,0.365-0.631c0.055-0.504,0.055-1.442,0.055-2.535V48.481z M63.74,49.405c0,0.126,0.027,0.168,0.111,0.21
		c0.266,0.084,0.631,0.112,0.939,0.112c0.49,0,0.658-0.042,0.867-0.196c0.379-0.266,0.799-0.785,0.799-1.765
		c0-1.681-1.148-2.115-1.877-2.115c-0.309,0-0.602,0.014-0.729,0.042c-0.084,0.028-0.111,0.07-0.111,0.168V49.405z"/>
	<path fill="#FFFFFF" d="M72.658,51.044c-0.07,0-0.086,0.015-0.113,0.085l-0.658,1.597c-0.125,0.294-0.182,0.588-0.182,0.729
		c0,0.21,0.111,0.336,0.49,0.336h0.182c0.154,0,0.182,0.056,0.182,0.126c0,0.098-0.07,0.126-0.195,0.126
		c-0.406,0-0.98-0.042-1.373-0.042c-0.125,0-0.785,0.042-1.428,0.042c-0.154,0-0.225-0.028-0.225-0.126
		c0-0.07,0.041-0.126,0.141-0.126c0.111,0,0.252-0.015,0.363-0.015c0.561-0.084,0.77-0.447,1.023-1.05l3.221-7.494
		c0.141-0.336,0.238-0.477,0.365-0.477c0.182,0,0.236,0.112,0.363,0.378c0.295,0.658,2.354,5.533,3.137,7.34
		c0.477,1.078,0.828,1.232,1.051,1.274c0.184,0.027,0.322,0.042,0.463,0.042c0.111,0,0.168,0.042,0.168,0.126
		c0,0.098-0.07,0.126-0.531,0.126c-0.436,0-1.332,0-2.367-0.028C76.51,54,76.369,54,76.369,53.916c0-0.07,0.027-0.112,0.154-0.126
		c0.084-0.015,0.168-0.126,0.111-0.267l-0.951-2.395c-0.029-0.07-0.07-0.085-0.127-0.085H72.658z M75.291,50.386
		c0.057,0,0.07-0.027,0.057-0.069l-1.164-3.026c-0.014-0.042-0.027-0.112-0.055-0.112c-0.043,0-0.057,0.07-0.07,0.112l-1.191,3.011
		c-0.027,0.057,0,0.084,0.043,0.084H75.291z"/>
	<path fill="#FFFFFF" d="M85.873,48.481c0-1.807,0-2.143-0.014-2.521c-0.029-0.406-0.141-0.532-0.533-0.644
		c-0.098-0.028-0.307-0.042-0.49-0.042c-0.125,0-0.209-0.042-0.209-0.126c0-0.084,0.098-0.112,0.279-0.112
		c0.645,0,1.43,0.028,1.668,0.028c0.615,0,1.428-0.028,1.848-0.028c2.229,0,2.619,1.148,2.619,1.779
		c0,0.925-0.686,1.639-1.387,2.087c1.01,0.322,2.27,1.177,2.27,2.577c0,1.274-1.008,2.592-3.277,2.592
		c-0.141,0-0.561-0.015-0.98-0.042C87.246,54.014,86.812,54,86.615,54c-0.141,0-0.406,0.014-0.699,0.014
		c-0.295,0.015-0.604,0.028-0.855,0.028c-0.154,0-0.238-0.042-0.238-0.126c0-0.056,0.043-0.126,0.197-0.126
		c0.182,0,0.32-0.015,0.434-0.042c0.252-0.057,0.322-0.28,0.363-0.631c0.057-0.504,0.057-1.442,0.057-2.535V48.481z M87.471,48.677
		c0,0.098,0.041,0.112,0.084,0.126c0.111,0.028,0.293,0.042,0.574,0.042c0.406,0,0.756-0.042,0.967-0.21
		c0.32-0.252,0.559-0.687,0.559-1.261c0-0.798-0.475-1.793-1.541-1.793c-0.168,0-0.404,0-0.531,0.028
		c-0.084,0.014-0.111,0.07-0.111,0.196V48.677z M87.471,52.179c0,0.785,0.041,1.022,0.434,1.177
		c0.322,0.126,0.602,0.141,0.883,0.141c0.658,0,1.512-0.364,1.512-1.682c0-0.546-0.238-1.484-1.162-2.115
		c-0.252-0.182-0.588-0.308-1.064-0.308h-0.533c-0.041,0-0.068,0.014-0.068,0.084V52.179z"/>
	<path fill="#FFFFFF" d="M94.623,48.481c0-1.807,0-2.143-0.014-2.521c-0.029-0.406-0.154-0.546-0.42-0.63
		c-0.141-0.042-0.295-0.056-0.449-0.056c-0.125,0-0.195-0.028-0.195-0.14c0-0.07,0.098-0.098,0.293-0.098
		c0.463,0,1.303,0.028,1.654,0.028c0.307,0,1.105-0.028,1.582-0.028c0.154,0,0.252,0.028,0.252,0.098c0,0.112-0.07,0.14-0.195,0.14
		c-0.127,0-0.225,0.014-0.365,0.042c-0.336,0.056-0.434,0.224-0.461,0.644c-0.029,0.378-0.029,0.714-0.029,2.521v2.101
		c0,1.148,0,2.102,0.057,2.605c0.041,0.322,0.127,0.504,0.49,0.561c0.168,0.027,0.447,0.042,0.631,0.042
		c0.139,0,0.195,0.07,0.195,0.126c0,0.084-0.098,0.126-0.238,0.126c-0.812,0-1.652-0.042-1.988-0.042
		c-0.281,0-1.121,0.042-1.611,0.042c-0.154,0-0.238-0.042-0.238-0.126c0-0.056,0.043-0.126,0.197-0.126
		c0.182,0,0.32-0.015,0.434-0.042c0.252-0.057,0.322-0.225,0.363-0.574c0.057-0.49,0.057-1.443,0.057-2.592V48.481z"/>
	<path fill="#FFFFFF" d="M102.324,50.582c0,1.527,0,2.283,0.266,2.508c0.211,0.182,0.686,0.252,1.639,0.252
		c0.658,0,1.135-0.014,1.443-0.336c0.154-0.154,0.279-0.49,0.309-0.715c0.014-0.112,0.041-0.182,0.139-0.182
		c0.084,0,0.113,0.126,0.113,0.266c0,0.141-0.084,1.022-0.184,1.373c-0.084,0.266-0.139,0.322-0.783,0.322
		c-0.883,0-1.598-0.015-2.213-0.042c-0.617-0.015-1.135-0.028-1.639-0.028c-0.141,0-0.406,0.014-0.701,0.014
		c-0.295,0.015-0.602,0.028-0.854,0.028c-0.154,0-0.238-0.042-0.238-0.126c0-0.056,0.041-0.126,0.195-0.126
		c0.182,0,0.322-0.015,0.434-0.042c0.252-0.057,0.322-0.28,0.365-0.631c0.055-0.504,0.055-1.442,0.055-2.535v-2.101
		c0-1.807,0-2.143-0.014-2.521c-0.027-0.406-0.139-0.532-0.531-0.644c-0.098-0.028-0.252-0.042-0.406-0.042
		c-0.141,0-0.211-0.042-0.211-0.126c0-0.084,0.084-0.112,0.266-0.112c0.576,0,1.359,0.028,1.695,0.028
		c0.295,0,1.303-0.028,1.779-0.028c0.182,0,0.266,0.028,0.266,0.112c0,0.084-0.068,0.126-0.223,0.126
		c-0.141,0-0.336,0.014-0.477,0.042c-0.336,0.056-0.436,0.224-0.463,0.644c-0.027,0.378-0.027,0.714-0.027,2.521V50.582z"/>
	<path fill="#FFFFFF" d="M108.748,48.481c0-1.807,0-2.143-0.014-2.521c-0.027-0.406-0.139-0.532-0.531-0.644
		c-0.098-0.028-0.309-0.042-0.49-0.042c-0.127,0-0.211-0.042-0.211-0.126c0-0.084,0.098-0.112,0.281-0.112
		c0.645,0,1.428,0.028,1.777,0.028c0.379,0,1.262-0.028,2.004-0.028c1.541,0,3.613,0,4.959,1.359
		c0.615,0.616,1.162,1.611,1.162,3.025c0,1.499-0.645,2.633-1.344,3.32c-0.561,0.561-1.863,1.4-4.133,1.4
		c-0.449,0-0.98-0.042-1.471-0.069c-0.49-0.042-0.939-0.07-1.246-0.07c-0.141,0-0.406,0.014-0.701,0.014
		c-0.295,0.015-0.602,0.028-0.854,0.028c-0.154,0-0.238-0.042-0.238-0.126c0-0.056,0.041-0.126,0.195-0.126
		c0.182,0,0.322-0.015,0.434-0.042c0.252-0.057,0.322-0.28,0.365-0.631c0.055-0.504,0.055-1.442,0.055-2.535V48.481z
		 M110.402,49.798c0,1.261,0.014,2.171,0.027,2.409c0.014,0.294,0.043,0.715,0.141,0.841c0.154,0.224,0.645,0.476,1.611,0.476
		c1.119,0,1.945-0.195,2.689-0.812c0.797-0.658,1.049-1.723,1.049-2.955c0-1.513-0.602-2.494-1.148-2.97
		c-1.135-1.009-2.479-1.135-3.445-1.135c-0.252,0-0.658,0.028-0.756,0.084c-0.113,0.042-0.154,0.098-0.154,0.238
		c-0.014,0.406-0.014,1.387-0.014,2.325V49.798z"/>
	<path fill="#FFFFFF" d="M120.592,48.481c0-1.807,0-2.143-0.014-2.521c-0.027-0.406-0.139-0.532-0.531-0.644
		c-0.098-0.028-0.309-0.042-0.49-0.042c-0.127,0-0.211-0.042-0.211-0.126c0-0.084,0.098-0.112,0.281-0.112
		c0.645,0,1.428,0.028,1.777,0.028c0.393,0,3.125,0.014,3.363,0c0.223-0.014,0.42-0.056,0.518-0.07
		c0.07-0.014,0.141-0.056,0.195-0.056c0.07,0,0.086,0.056,0.086,0.112c0,0.084-0.07,0.224-0.1,0.77
		c-0.014,0.126-0.041,0.645-0.07,0.785c-0.014,0.056-0.041,0.196-0.139,0.196c-0.084,0-0.098-0.056-0.098-0.154
		c0-0.084-0.016-0.294-0.086-0.434c-0.098-0.21-0.195-0.378-0.811-0.435c-0.211-0.028-1.682-0.056-1.934-0.056
		c-0.057,0-0.084,0.042-0.084,0.112v2.942c0,0.07,0.014,0.126,0.084,0.126c0.279,0,1.877,0,2.156-0.028
		c0.295-0.028,0.477-0.056,0.588-0.182c0.1-0.084,0.141-0.154,0.197-0.154s0.098,0.056,0.098,0.126c0,0.07-0.027,0.266-0.098,0.869
		c-0.027,0.238-0.057,0.714-0.057,0.798c0,0.098-0.014,0.266-0.125,0.266c-0.084,0-0.113-0.042-0.113-0.098
		c-0.014-0.126-0.014-0.28-0.041-0.435c-0.07-0.238-0.225-0.42-0.688-0.462c-0.223-0.028-1.625-0.056-1.932-0.056
		c-0.057,0-0.07,0.056-0.07,0.126v0.952c0,0.406-0.014,1.415,0,1.765c0.027,0.812,0.406,0.995,1.666,0.995
		c0.322,0,0.842-0.014,1.162-0.154c0.309-0.14,0.449-0.393,0.533-0.883c0.027-0.126,0.057-0.182,0.141-0.182
		c0.098,0,0.111,0.154,0.111,0.28c0,0.266-0.098,1.078-0.168,1.316c-0.084,0.309-0.195,0.309-0.658,0.309
		c-0.924,0-1.666-0.015-2.27-0.042c-0.602-0.015-1.064-0.028-1.428-0.028c-0.141,0-0.406,0.014-0.701,0.014
		c-0.295,0.015-0.602,0.028-0.854,0.028c-0.154,0-0.238-0.042-0.238-0.126c0-0.056,0.041-0.126,0.195-0.126
		c0.182,0,0.322-0.015,0.434-0.042c0.252-0.057,0.322-0.28,0.365-0.631c0.055-0.504,0.055-1.442,0.055-2.535V48.481z"/>
	<path fill="#FFFFFF" d="M129.496,52.417c0.029,0.925,0.184,1.205,0.422,1.289c0.209,0.069,0.447,0.084,0.645,0.084
		c0.139,0,0.209,0.056,0.209,0.126c0,0.098-0.111,0.126-0.279,0.126c-0.799,0-1.373-0.042-1.598-0.042
		c-0.111,0-0.701,0.042-1.33,0.042c-0.168,0-0.281-0.014-0.281-0.126c0-0.07,0.084-0.126,0.197-0.126
		c0.168,0,0.393-0.015,0.561-0.057c0.322-0.084,0.363-0.405,0.377-1.442l0.113-7.06c0-0.238,0.084-0.406,0.209-0.406
		c0.154,0,0.322,0.182,0.533,0.392c0.154,0.154,2.002,2.045,3.795,3.796c0.842,0.827,2.48,2.507,2.662,2.675h0.057l-0.127-5.294
		c-0.014-0.729-0.125-0.938-0.42-1.051c-0.182-0.07-0.477-0.07-0.645-0.07c-0.154,0-0.195-0.056-0.195-0.126
		c0-0.098,0.125-0.112,0.307-0.112c0.645,0,1.303,0.028,1.57,0.028c0.139,0,0.602-0.028,1.203-0.028
		c0.168,0,0.281,0.014,0.281,0.112c0,0.07-0.07,0.126-0.211,0.126c-0.125,0-0.223,0-0.377,0.042
		c-0.336,0.098-0.436,0.308-0.449,0.98l-0.141,7.508c0,0.267-0.098,0.378-0.195,0.378c-0.211,0-0.379-0.126-0.504-0.252
		c-0.771-0.714-2.312-2.185-3.6-3.432c-1.346-1.289-2.648-2.731-2.887-2.941h-0.041L129.496,52.417z"/>
</g>
<path fill-rule="evenodd" clip-rule="evenodd" fill="#FFFFFF" d="M54.871,30.029c-1.13,1.121-1.16,2.931-0.101,4.101l0.051,0.05
	l0.05,0.051c1.17,1.06,2.979,1.029,4.101-0.101l9.779-10.94c-1.77-1.119-2.51-1.799-3.529-3.319L54.871,30.029z M75.001,8v3h-3v2h3
	v3h2v-3h3v-2h-3V8H75.001z M65.001,12c0,6.07,4.93,11,11,11c6.08,0,11-4.93,11-11c0-6.08-4.92-11-11-11
	C69.931,1,65.001,5.92,65.001,12z M68.001,12c0-4.42,3.58-8,8-8s8,3.58,8,8s-3.58,8-8,8S68.001,16.42,68.001,12z"/>
</svg>
